{
	"asset":{
		"generator":"Khronos glTF Blender I/O v4.2.60",
		"version":"2.0"
	},
	"scene":0,
	"scenes":[
		{
			"name":"Scene",
			"nodes":[
				0,
				1
			]
		}
	],
	"nodes":[
		{
			"mesh":0,
			"name":"Cube",
			"translation":[
				0,
				2.404001474380493,
				0
			]
		},
		{
			"mesh":1,
			"name":"Sphere",
			"translation":[
				-2.734523296356201,
				3.100884437561035,
				0
			]
		}
	],
	"materials":[
		{
			"doubleSided":true,
			"name":"wood",
			"normalTexture":{
				"index":0,
				"scale":10
			},
			"pbrMetallicRoughness":{
				"baseColorTexture":{
					"index":1
				},
				"metallicFactor":0,
				"roughnessFactor":0.5
			}
		},
		{
			"doubleSided":true,
			"name":"fabric",
			"normalTexture":{
				"index":2,
				"scale":10
			},
			"pbrMetallicRoughness":{
				"baseColorTexture":{
					"index":3
				},
				"metallicFactor":0
			}
		}
	],
	"meshes":[
		{
			"name":"Cube",
			"primitives":[
				{
					"attributes":{
						"POSITION":0,
						"NORMAL":1,
						"TEXCOORD_0":2
					},
					"indices":3,
					"material":0
				},
				{
					"attributes":{
						"POSITION":4,
						"NORMAL":5,
						"TEXCOORD_0":6
					},
					"indices":7,
					"material":1
				}
			]
		},
		{
			"name":"Sphere",
			"primitives":[
				{
					"attributes":{
						"POSITION":8,
						"NORMAL":9,
						"TEXCOORD_0":10
					},
					"indices":11
				}
			]
		}
	],
	"textures":[
		{
			"sampler":0,
			"source":0
		},
		{
			"sampler":0,
			"source":1
		},
		{
			"sampler":0,
			"source":2
		},
		{
			"sampler":0,
			"source":3
		}
	],
	"images":[
		{
			"mimeType":"image/jpeg",
			"name":"Wood051_1K-JPG_NormalDX",
			"uri":"Wood051_1K-JPG_NormalDX.jpg"
		},
		{
			"mimeType":"image/jpeg",
			"name":"Wood051_1K-JPG_Color",
			"uri":"Wood051_1K-JPG_Color.jpg"
		},
		{
			"mimeType":"image/jpeg",
			"name":"Fabric023_1K-JPG_NormalDX",
			"uri":"Fabric023_1K-JPG_NormalDX.jpg"
		},
		{
			"mimeType":"image/jpeg",
			"name":"Fabric023_1K-JPG_Color",
			"uri":"Fabric023_1K-JPG_Color.jpg"
		}
	],
	"accessors":[
		{
			"bufferView":0,
			"componentType":5126,
			"count":594,
			"max":[
				6.249043941497803,
				0.663170337677002,
				3.5918643474578857
			],
			"min":[
				-6.493346214294434,
				-2.43178391456604,
				-3.592146158218384
			],
			"type":"VEC3"
		},
		{
			"bufferView":1,
			"componentType":5126,
			"count":594,
			"type":"VEC3"
		},
		{
			"bufferView":2,
			"componentType":5126,
			"count":594,
			"type":"VEC2"
		},
		{
			"bufferView":3,
			"componentType":5123,
			"count":1416,
			"type":"SCALAR"
		},
		{
			"bufferView":4,
			"componentType":5126,
			"count":662,
			"max":[
				6.0113325119018555,
				0.663170337677002,
				3.3541529178619385
			],
			"min":[
				-5.896193504333496,
				0.40071868896484375,
				-3.3544347286224365
			],
			"type":"VEC3"
		},
		{
			"bufferView":5,
			"componentType":5126,
			"count":662,
			"type":"VEC3"
		},
		{
			"bufferView":6,
			"componentType":5126,
			"count":662,
			"type":"VEC2"
		},
		{
			"bufferView":7,
			"componentType":5123,
			"count":1938,
			"type":"SCALAR"
		},
		{
			"bufferView":8,
			"componentType":5126,
			"count":1984,
			"max":[
				0.1771167814731598,
				0.1771167516708374,
				0.17711672186851501
			],
			"min":[
				-0.17711669206619263,
				-0.17711693048477173,
				-0.17711688578128815
			],
			"type":"VEC3"
		},
		{
			"bufferView":9,
			"componentType":5126,
			"count":1984,
			"type":"VEC3"
		},
		{
			"bufferView":10,
			"componentType":5126,
			"count":1984,
			"type":"VEC2"
		},
		{
			"bufferView":11,
			"componentType":5123,
			"count":2880,
			"type":"SCALAR"
		}
	],
	"bufferViews":[
		{
			"buffer":0,
			"byteLength":7128,
			"byteOffset":0,
			"target":34962
		},
		{
			"buffer":0,
			"byteLength":7128,
			"byteOffset":7128,
			"target":34962
		},
		{
			"buffer":0,
			"byteLength":4752,
			"byteOffset":14256,
			"target":34962
		},
		{
			"buffer":0,
			"byteLength":2832,
			"byteOffset":19008,
			"target":34963
		},
		{
			"buffer":0,
			"byteLength":7944,
			"byteOffset":21840,
			"target":34962
		},
		{
			"buffer":0,
			"byteLength":7944,
			"byteOffset":29784,
			"target":34962
		},
		{
			"buffer":0,
			"byteLength":5296,
			"byteOffset":37728,
			"target":34962
		},
		{
			"buffer":0,
			"byteLength":3876,
			"byteOffset":43024,
			"target":34963
		},
		{
			"buffer":0,
			"byteLength":23808,
			"byteOffset":46900,
			"target":34962
		},
		{
			"buffer":0,
			"byteLength":23808,
			"byteOffset":70708,
			"target":34962
		},
		{
			"buffer":0,
			"byteLength":15872,
			"byteOffset":94516,
			"target":34962
		},
		{
			"buffer":0,
			"byteLength":5760,
			"byteOffset":110388,
			"target":34963
		}
	],
	"samplers":[
		{
			"magFilter":9729,
			"minFilter":9987
		}
	],
	"buffers":[
		{
			"byteLength":116148,
			"uri":"billard.bin"
		}
	]
}
