{
	"asset":{
		"generator":"Khronos glTF Blender I/O v4.2.60",
		"version":"2.0"
	},
	"scene":0,
	"scenes":[
		{
			"name":"Scene",
			"nodes":[
				0
			]
		}
	],
	"nodes":[
		{
			"mesh":0,
			"name":"Sphere",
			"translation":[
				-2.734523296356201,
				3.100884437561035,
				0
			]
		}
	],
	"materials":[
		{
			"doubleSided":true,
			"name":"white",
			"pbrMetallicRoughness":{
				"baseColorFactor":[
					0.800000011920929,
					0.800000011920929,
					0.800000011920929,
					1
				],
				"metallicFactor":0.7594937086105347,
				"roughnessFactor":0.3734177052974701
			}
		},
		{
			"doubleSided":true,
			"name":"orange",
			"pbrMetallicRoughness":{
				"baseColorFactor":[
					0.8007350564002991,
					0.19986587762832642,
					0,
					1
				],
				"metallicFactor":0,
				"roughnessFactor":0.5
			}
		},
		{
			"doubleSided":true,
			"name":"green",
			"pbrMetallicRoughness":{
				"baseColorFactor":[
					0.003550855675712228,
					0.28387022018432617,
					0,
					1
				],
				"metallicFactor":0,
				"roughnessFactor":0.5
			}
		}
	],
	"meshes":[
		{
			"name":"Sphere",
			"primitives":[
				{
					"attributes":{
						"POSITION":0,
						"NORMAL":1,
						"TEXCOORD_0":2
					},
					"indices":3,
					"material":0
				},
				{
					"attributes":{
						"POSITION":4,
						"NORMAL":5,
						"TEXCOORD_0":6
					},
					"indices":7,
					"material":1
				},
				{
					"attributes":{
						"POSITION":8,
						"NORMAL":9,
						"TEXCOORD_0":10
					},
					"indices":11,
					"material":2
				}
			]
		}
	],
	"accessors":[
		{
			"bufferView":0,
			"componentType":5126,
			"count":328,
			"max":[
				0.1252404749393463,
				0.1771167516708374,
				0.1252404749393463
			],
			"min":[
				-0.1252405196428299,
				-0.17711693048477173,
				-0.1252405047416687
			],
			"type":"VEC3"
		},
		{
			"bufferView":1,
			"componentType":5126,
			"count":328,
			"type":"VEC3"
		},
		{
			"bufferView":2,
			"componentType":5126,
			"count":328,
			"type":"VEC2"
		},
		{
			"bufferView":3,
			"componentType":5123,
			"count":1344,
			"type":"SCALAR"
		},
		{
			"bufferView":4,
			"componentType":5126,
			"count":9,
			"max":[
				0.03455374389886856,
				0.034553706645965576,
				-0.17037566006183624
			],
			"min":[
				-0.03455369547009468,
				-0.0345538854598999,
				-0.17711688578128815
			],
			"type":"VEC3"
		},
		{
			"bufferView":5,
			"componentType":5126,
			"count":9,
			"type":"VEC3"
		},
		{
			"bufferView":6,
			"componentType":5126,
			"count":9,
			"type":"VEC2"
		},
		{
			"bufferView":7,
			"componentType":5123,
			"count":24,
			"type":"SCALAR"
		},
		{
			"bufferView":8,
			"componentType":5126,
			"count":296,
			"max":[
				0.1771167814731598,
				0.12524044513702393,
				0.17711672186851501
			],
			"min":[
				-0.17711669206619263,
				-0.12524062395095825,
				-0.17371360957622528
			],
			"type":"VEC3"
		},
		{
			"bufferView":9,
			"componentType":5126,
			"count":296,
			"type":"VEC3"
		},
		{
			"bufferView":10,
			"componentType":5126,
			"count":296,
			"type":"VEC2"
		},
		{
			"bufferView":11,
			"componentType":5123,
			"count":1512,
			"type":"SCALAR"
		}
	],
	"bufferViews":[
		{
			"buffer":0,
			"byteLength":3936,
			"byteOffset":0,
			"target":34962
		},
		{
			"buffer":0,
			"byteLength":3936,
			"byteOffset":3936,
			"target":34962
		},
		{
			"buffer":0,
			"byteLength":2624,
			"byteOffset":7872,
			"target":34962
		},
		{
			"buffer":0,
			"byteLength":2688,
			"byteOffset":10496,
			"target":34963
		},
		{
			"buffer":0,
			"byteLength":108,
			"byteOffset":13184,
			"target":34962
		},
		{
			"buffer":0,
			"byteLength":108,
			"byteOffset":13292,
			"target":34962
		},
		{
			"buffer":0,
			"byteLength":72,
			"byteOffset":13400,
			"target":34962
		},
		{
			"buffer":0,
			"byteLength":48,
			"byteOffset":13472,
			"target":34963
		},
		{
			"buffer":0,
			"byteLength":3552,
			"byteOffset":13520,
			"target":34962
		},
		{
			"buffer":0,
			"byteLength":3552,
			"byteOffset":17072,
			"target":34962
		},
		{
			"buffer":0,
			"byteLength":2368,
			"byteOffset":20624,
			"target":34962
		},
		{
			"buffer":0,
			"byteLength":3024,
			"byteOffset":22992,
			"target":34963
		}
	],
	"buffers":[
		{
			"byteLength":26016,
			"uri":"stripedgreen_.bin"
		}
	]
}
