{
	"asset":{
		"generator":"Khronos glTF Blender I/O v4.2.60",
		"version":"2.0"
	},
	"scene":0,
	"scenes":[
		{
			"name":"Scene",
			"nodes":[
				0
			]
		}
	],
	"nodes":[
		{
			"mesh":0,
			"name":"Sphere",
			"translation":[
				-2.734523296356201,
				3.100884437561035,
				0
			]
		}
	],
	"materials":[
		{
			"doubleSided":true,
			"name":"white",
			"pbrMetallicRoughness":{
				"baseColorFactor":[
					0.800000011920929,
					0.800000011920929,
					0.800000011920929,
					1
				],
				"metallicFactor":0.7594937086105347,
				"roughnessFactor":0.3734177052974701
			}
		},
		{
			"doubleSided":true,
			"name":"brown",
			"pbrMetallicRoughness":{
				"baseColorFactor":[
					0.2757626473903656,
					0.08313685655593872,
					0.004009621683508158,
					1
				],
				"metallicFactor":0,
				"roughnessFactor":0.5
			}
		}
	],
	"meshes":[
		{
			"name":"Sphere",
			"primitives":[
				{
					"attributes":{
						"POSITION":0,
						"NORMAL":1,
						"TEXCOORD_0":2
					},
					"indices":3,
					"material":0
				},
				{
					"attributes":{
						"POSITION":4,
						"NORMAL":5,
						"TEXCOORD_0":6
					},
					"indices":7,
					"material":1
				}
			]
		}
	],
	"accessors":[
		{
			"bufferView":0,
			"componentType":5126,
			"count":196,
			"max":[
				0.06777963787317276,
				0.1771167516708374,
				0.06777965277433395
			],
			"min":[
				-0.06777969747781754,
				-0.17711693048477173,
				-0.06777965277433395
			],
			"type":"VEC3"
		},
		{
			"bufferView":1,
			"componentType":5126,
			"count":196,
			"type":"VEC3"
		},
		{
			"bufferView":2,
			"componentType":5126,
			"count":196,
			"type":"VEC2"
		},
		{
			"bufferView":3,
			"componentType":5123,
			"count":576,
			"type":"SCALAR"
		},
		{
			"bufferView":4,
			"componentType":5126,
			"count":429,
			"max":[
				0.1771167814731598,
				0.1636345386505127,
				0.17711672186851501
			],
			"min":[
				-0.17711669206619263,
				-0.16363471746444702,
				-0.17711688578128815
			],
			"type":"VEC3"
		},
		{
			"bufferView":5,
			"componentType":5126,
			"count":429,
			"type":"VEC3"
		},
		{
			"bufferView":6,
			"componentType":5126,
			"count":429,
			"type":"VEC2"
		},
		{
			"bufferView":7,
			"componentType":5123,
			"count":2304,
			"type":"SCALAR"
		}
	],
	"bufferViews":[
		{
			"buffer":0,
			"byteLength":2352,
			"byteOffset":0,
			"target":34962
		},
		{
			"buffer":0,
			"byteLength":2352,
			"byteOffset":2352,
			"target":34962
		},
		{
			"buffer":0,
			"byteLength":1568,
			"byteOffset":4704,
			"target":34962
		},
		{
			"buffer":0,
			"byteLength":1152,
			"byteOffset":6272,
			"target":34963
		},
		{
			"buffer":0,
			"byteLength":5148,
			"byteOffset":7424,
			"target":34962
		},
		{
			"buffer":0,
			"byteLength":5148,
			"byteOffset":12572,
			"target":34962
		},
		{
			"buffer":0,
			"byteLength":3432,
			"byteOffset":17720,
			"target":34962
		},
		{
			"buffer":0,
			"byteLength":4608,
			"byteOffset":21152,
			"target":34963
		}
	],
	"buffers":[
		{
			"byteLength":25760,
			"uri":"fullbrown.bin"
		}
	]
}
