{
	"asset":{
		"generator":"Khronos glTF Blender I/O v4.2.60",
		"version":"2.0"
	},
	"scene":0,
	"scenes":[
		{
			"name":"Scene",
			"nodes":[
				0
			]
		}
	],
	"nodes":[
		{
			"mesh":0,
			"name":"Sphere",
			"translation":[
				-2.734523296356201,
				3.100884437561035,
				0
			]
		}
	],
	"materials":[
		{
			"doubleSided":true,
			"name":"white",
			"pbrMetallicRoughness":{
				"baseColorFactor":[
					0.800000011920929,
					0.800000011920929,
					0.800000011920929,
					1
				],
				"metallicFactor":0.7594937086105347,
				"roughnessFactor":0.3734177052974701
			}
		},
		{
			"doubleSided":true,
			"name":"red",
			"pbrMetallicRoughness":{
				"baseColorFactor":[
					0.8002911806106567,
					0.007828043773770332,
					0.0007871306734159589,
					1
				],
				"metallicFactor":0,
				"roughnessFactor":0.5
			}
		}
	],
	"meshes":[
		{
			"name":"Sphere",
			"primitives":[
				{
					"attributes":{
						"POSITION":0,
						"NORMAL":1,
						"TEXCOORD_0":2
					},
					"indices":3,
					"material":0
				},
				{
					"attributes":{
						"POSITION":4,
						"NORMAL":5,
						"TEXCOORD_0":6
					},
					"indices":7,
					"material":1
				}
			]
		}
	],
	"accessors":[
		{
			"bufferView":0,
			"componentType":5126,
			"count":328,
			"max":[
				0.1252404749393463,
				0.1771167516708374,
				0.1252404749393463
			],
			"min":[
				-0.1252405196428299,
				-0.17711693048477173,
				-0.1252405047416687
			],
			"type":"VEC3"
		},
		{
			"bufferView":1,
			"componentType":5126,
			"count":328,
			"type":"VEC3"
		},
		{
			"bufferView":2,
			"componentType":5126,
			"count":328,
			"type":"VEC2"
		},
		{
			"bufferView":3,
			"componentType":5123,
			"count":1344,
			"type":"SCALAR"
		},
		{
			"bufferView":4,
			"componentType":5126,
			"count":297,
			"max":[
				0.1771167814731598,
				0.12524044513702393,
				0.17711672186851501
			],
			"min":[
				-0.17711669206619263,
				-0.12524062395095825,
				-0.17711688578128815
			],
			"type":"VEC3"
		},
		{
			"bufferView":5,
			"componentType":5126,
			"count":297,
			"type":"VEC3"
		},
		{
			"bufferView":6,
			"componentType":5126,
			"count":297,
			"type":"VEC2"
		},
		{
			"bufferView":7,
			"componentType":5123,
			"count":1536,
			"type":"SCALAR"
		}
	],
	"bufferViews":[
		{
			"buffer":0,
			"byteLength":3936,
			"byteOffset":0,
			"target":34962
		},
		{
			"buffer":0,
			"byteLength":3936,
			"byteOffset":3936,
			"target":34962
		},
		{
			"buffer":0,
			"byteLength":2624,
			"byteOffset":7872,
			"target":34962
		},
		{
			"buffer":0,
			"byteLength":2688,
			"byteOffset":10496,
			"target":34963
		},
		{
			"buffer":0,
			"byteLength":3564,
			"byteOffset":13184,
			"target":34962
		},
		{
			"buffer":0,
			"byteLength":3564,
			"byteOffset":16748,
			"target":34962
		},
		{
			"buffer":0,
			"byteLength":2376,
			"byteOffset":20312,
			"target":34962
		},
		{
			"buffer":0,
			"byteLength":3072,
			"byteOffset":22688,
			"target":34963
		}
	],
	"buffers":[
		{
			"byteLength":25760,
			"uri":"stripedred.bin"
		}
	]
}
